<svg width="49" height="49" viewBox="0 0 49 49" fill="none" xmlns="http://www.w3.org/2000/svg">
<path d="M22.8262 22.4893C22.8262 21.9588 23.0369 21.4501 23.412 21.075C23.787 20.7 24.2957 20.4893 24.8262 20.4893C25.3566 20.4893 25.8653 20.7 26.2404 21.075C26.6155 21.4501 26.8262 21.9588 26.8262 22.4893V34.4893C26.8262 35.0197 26.6155 35.5284 26.2404 35.9035C25.8653 36.2785 25.3566 36.4893 24.8262 36.4893C24.2957 36.4893 23.787 36.2785 23.412 35.9035C23.0369 35.5284 22.8262 35.0197 22.8262 34.4893V22.4893Z" fill="#40A9FF"/>
<path d="M24.8262 12.6309C24.2957 12.6309 23.787 12.8416 23.412 13.2166C23.0369 13.5917 22.8262 14.1004 22.8262 14.6309C22.8262 15.1613 23.0369 15.67 23.412 16.0451C23.787 16.4201 24.2957 16.6309 24.8262 16.6309C25.3566 16.6309 25.8653 16.4201 26.2404 16.0451C26.6155 15.67 26.8262 15.1613 26.8262 14.6309C26.8262 14.1004 26.6155 13.5917 26.2404 13.2166C25.8653 12.8416 25.3566 12.6309 24.8262 12.6309Z" fill="#40A9FF"/>
<path fill-rule="evenodd" clip-rule="evenodd" d="M24.8262 4.5293C13.7802 4.5293 4.82617 13.4833 4.82617 24.5293C4.82617 35.5753 13.7802 44.5293 24.8262 44.5293C35.8722 44.5293 44.8262 35.5753 44.8262 24.5293C44.8262 13.4833 35.8722 4.5293 24.8262 4.5293ZM8.82617 24.5293C8.82617 28.7728 10.5119 32.8424 13.5125 35.843C16.513 38.8436 20.5827 40.5293 24.8262 40.5293C29.0696 40.5293 33.1393 38.8436 36.1399 35.843C39.1405 32.8424 40.8262 28.7728 40.8262 24.5293C40.8262 20.2858 39.1405 16.2162 36.1399 13.2156C33.1393 10.215 29.0696 8.5293 24.8262 8.5293C20.5827 8.5293 16.513 10.215 13.5125 13.2156C10.5119 16.2162 8.82617 20.2858 8.82617 24.5293V24.5293Z" fill="#40A9FF"/>
</svg>
