<svg width="48" height="48" viewBox="0 0 48 48" fill="none" xmlns="http://www.w3.org/2000/svg">
<path d="M23.9994 2.66699C19.78 2.66699 15.6554 3.91817 12.1472 6.26231C8.63894 8.60644 5.9046 11.9383 4.28993 15.8364C2.67526 19.7346 2.25279 24.024 3.07594 28.1623C3.89909 32.3005 5.93089 36.1017 8.91441 39.0853C11.8979 42.0688 15.6992 44.1006 19.8374 44.9237C23.9757 45.7469 28.2651 45.3244 32.1633 43.7098C36.0614 42.0951 39.3932 39.3607 41.7374 35.8525C44.0815 32.3442 45.3327 28.2197 45.3327 24.0003C45.3327 18.3424 43.0851 12.9162 39.0843 8.91538C35.0835 4.91461 29.6573 2.66699 23.9994 2.66699V2.66699ZM23.9994 42.667C20.3074 42.667 16.6984 41.5722 13.6287 39.5211C10.559 37.47 8.16644 34.5546 6.75361 31.1437C5.34077 27.7329 4.97111 23.9796 5.69137 20.3586C6.41162 16.7377 8.18945 13.4116 10.8 10.801C13.4106 8.19042 16.7367 6.41259 20.3577 5.69233C23.9787 4.97208 27.7319 5.34174 31.1428 6.75457C34.5537 8.16741 37.469 10.56 39.5201 13.6297C41.5712 16.6994 42.666 20.3084 42.666 24.0003C42.666 28.951 40.6994 33.699 37.1987 37.1996C33.698 40.7003 28.9501 42.667 23.9994 42.667Z" fill="#52C41A"/>
<path d="M37.3339 16.1338C37.0841 15.8855 36.7461 15.7461 36.3939 15.7461C36.0417 15.7461 35.7037 15.8855 35.4539 16.1338L20.6539 30.8671L12.6539 22.8672C12.4099 22.6037 12.0712 22.448 11.7124 22.4342C11.3536 22.4205 11.004 22.5498 10.7406 22.7938C10.4771 23.0378 10.3214 23.3765 10.3076 23.7353C10.2939 24.0941 10.4232 24.4437 10.6672 24.7072L20.6539 34.6672L37.3339 18.0272C37.4589 17.9032 37.5581 17.7557 37.6258 17.5933C37.6934 17.4308 37.7283 17.2565 37.7283 17.0805C37.7283 16.9045 37.6934 16.7302 37.6258 16.5677C37.5581 16.4052 37.4589 16.2578 37.3339 16.1338Z" fill="#52C41A"/>
</svg>
