<svg width="48" height="48" viewBox="0 0 48 48" fill="none" xmlns="http://www.w3.org/2000/svg">
<path d="M24 12C24.5304 12 25.0391 12.2107 25.4142 12.5858C25.7893 12.9609 26 13.4696 26 14V26C26 26.5304 25.7893 27.0391 25.4142 27.4142C25.0391 27.7893 24.5304 28 24 28C23.4696 28 22.9609 27.7893 22.5858 27.4142C22.2107 27.0391 22 26.5304 22 26V14C22 13.4696 22.2107 12.9609 22.5858 12.5858C22.9609 12.2107 23.4696 12 24 12V12Z" fill="#FAAD14"/>
<path d="M24 32C23.4696 32 22.9609 32.2107 22.5858 32.5858C22.2107 32.9609 22 33.4696 22 34C22 34.5304 22.2107 35.0391 22.5858 35.4142C22.9609 35.7893 23.4696 36 24 36C24.5304 36 25.0391 35.7893 25.4142 35.4142C25.7893 35.0391 26 34.5304 26 34C26 33.4696 25.7893 32.9609 25.4142 32.5858C25.0391 32.2107 24.5304 32 24 32Z" fill="#FAAD14"/>
<path fill-rule="evenodd" clip-rule="evenodd" d="M24 4C12.954 4 4 12.954 4 24C4 35.046 12.954 44 24 44C35.046 44 44 35.046 44 24C44 12.954 35.046 4 24 4ZM8 24C8 28.2435 9.68571 32.3131 12.6863 35.3137C15.6869 38.3143 19.7565 40 24 40C28.2435 40 32.3131 38.3143 35.3137 35.3137C38.3143 32.3131 40 28.2435 40 24C40 19.7565 38.3143 15.6869 35.3137 12.6863C32.3131 9.68571 28.2435 8 24 8C19.7565 8 15.6869 9.68571 12.6863 12.6863C9.68571 15.6869 8 19.7565 8 24V24Z" fill="#FAAD14"/>
</svg>
